<mxfile host="65bd71144e">
    <diagram id="CLAJcipi6C9BbEI0ET76" name="Page-1">
        <mxGraphModel dx="1681" dy="469" grid="1" gridSize="10" guides="1" tooltips="1" connect="1" arrows="1" fold="1" page="1" pageScale="1" pageWidth="850" pageHeight="1100" math="0" shadow="0">
            <root>
                <mxCell id="0"/>
                <mxCell id="1" parent="0"/>
                <mxCell id="2" value="server" style="ellipse;whiteSpace=wrap;html=1;aspect=fixed;" vertex="1" parent="1">
                    <mxGeometry x="70" y="60" width="140" height="140" as="geometry"/>
                </mxCell>
                <mxCell id="3" value="clients" style="ellipse;whiteSpace=wrap;html=1;aspect=fixed;" vertex="1" parent="1">
                    <mxGeometry x="60" y="230" width="150" height="150" as="geometry"/>
                </mxCell>
                <mxCell id="4" value="blockchain" style="ellipse;whiteSpace=wrap;html=1;aspect=fixed;" vertex="1" parent="1">
                    <mxGeometry x="-50" y="95" width="70" height="70" as="geometry"/>
                </mxCell>
                <mxCell id="5" value="pubsub" style="ellipse;whiteSpace=wrap;html=1;aspect=fixed;" vertex="1" parent="1">
                    <mxGeometry x="150" y="25" width="80" height="80" as="geometry"/>
                </mxCell>
                <mxCell id="6" value="" style="endArrow=classic;html=1;exitX=0;exitY=0;exitDx=0;exitDy=0;" edge="1" parent="1" source="3" target="4">
                    <mxGeometry width="50" height="50" relative="1" as="geometry">
                        <mxPoint x="170" y="270" as="sourcePoint"/>
                        <mxPoint x="220" y="220" as="targetPoint"/>
                    </mxGeometry>
                </mxCell>
            </root>
        </mxGraphModel>
    </diagram>
    <diagram id="aAuDQZT-YicBtzILJYRO" name="Page-2">
        <mxGraphModel dx="831" dy="469" grid="1" gridSize="10" guides="1" tooltips="1" connect="1" arrows="1" fold="1" page="1" pageScale="1" pageWidth="850" pageHeight="1100" math="0" shadow="0">
            <root>
                <mxCell id="0"/>
                <mxCell id="1" parent="0"/>
                <mxCell id="NaA1hih1Jg8FZ-7bSQej-10" value="Client Ideal" style="swimlane;whiteSpace=wrap;html=1;" vertex="1" parent="1">
                    <mxGeometry x="50" y="20" width="430" height="430" as="geometry"/>
                </mxCell>
                <mxCell id="NaA1hih1Jg8FZ-7bSQej-1" value="All services&lt;br&gt;Flask app&lt;br&gt;Prediction Engine&lt;br&gt;Relay Engine&lt;br&gt;Singletons:&lt;br&gt;Server connections" style="rounded=1;whiteSpace=wrap;html=1;" vertex="1" parent="NaA1hih1Jg8FZ-7bSQej-10">
                    <mxGeometry x="210" y="55" width="120" height="115" as="geometry"/>
                </mxCell>
                <mxCell id="NaA1hih1Jg8FZ-7bSQej-19" value="Startup" style="rounded=1;whiteSpace=wrap;html=1;" vertex="1" parent="NaA1hih1Jg8FZ-7bSQej-10">
                    <mxGeometry x="20" y="55" width="120" height="60" as="geometry"/>
                </mxCell>
                <mxCell id="NaA1hih1Jg8FZ-7bSQej-20" value="" style="endArrow=classic;html=1;" edge="1" parent="NaA1hih1Jg8FZ-7bSQej-10" source="NaA1hih1Jg8FZ-7bSQej-19" target="NaA1hih1Jg8FZ-7bSQej-1">
                    <mxGeometry width="50" height="50" relative="1" as="geometry">
                        <mxPoint x="350" y="250" as="sourcePoint"/>
                        <mxPoint x="400" y="200" as="targetPoint"/>
                    </mxGeometry>
                </mxCell>
                <mxCell id="NaA1hih1Jg8FZ-7bSQej-11" value="Client" style="swimlane;whiteSpace=wrap;html=1;" vertex="1" parent="1">
                    <mxGeometry x="500" y="20" width="430" height="430" as="geometry"/>
                </mxCell>
                <mxCell id="NaA1hih1Jg8FZ-7bSQej-12" value="Web UI" style="rounded=1;whiteSpace=wrap;html=1;" vertex="1" parent="NaA1hih1Jg8FZ-7bSQej-11">
                    <mxGeometry x="150" y="315" width="120" height="60" as="geometry"/>
                </mxCell>
                <mxCell id="NaA1hih1Jg8FZ-7bSQej-13" value="Prediction Engine" style="rounded=1;whiteSpace=wrap;html=1;" vertex="1" parent="NaA1hih1Jg8FZ-7bSQej-11">
                    <mxGeometry x="70" y="55" width="120" height="60" as="geometry"/>
                </mxCell>
                <mxCell id="NaA1hih1Jg8FZ-7bSQej-14" value="Relay Engine" style="rounded=1;whiteSpace=wrap;html=1;" vertex="1" parent="NaA1hih1Jg8FZ-7bSQej-11">
                    <mxGeometry x="240" y="55" width="120" height="60" as="geometry"/>
                </mxCell>
                <mxCell id="NaA1hih1Jg8FZ-7bSQej-15" style="edgeStyle=none;html=1;entryX=0.5;entryY=1;entryDx=0;entryDy=0;" edge="1" parent="NaA1hih1Jg8FZ-7bSQej-11" source="NaA1hih1Jg8FZ-7bSQej-17" target="NaA1hih1Jg8FZ-7bSQej-14">
                    <mxGeometry relative="1" as="geometry"/>
                </mxCell>
                <mxCell id="NaA1hih1Jg8FZ-7bSQej-16" style="edgeStyle=none;html=1;" edge="1" parent="NaA1hih1Jg8FZ-7bSQej-11" source="NaA1hih1Jg8FZ-7bSQej-17" target="NaA1hih1Jg8FZ-7bSQej-13">
                    <mxGeometry relative="1" as="geometry"/>
                </mxCell>
                <mxCell id="NaA1hih1Jg8FZ-7bSQej-17" value="API layer" style="rounded=1;whiteSpace=wrap;html=1;" vertex="1" parent="NaA1hih1Jg8FZ-7bSQej-11">
                    <mxGeometry x="150" y="195" width="120" height="60" as="geometry"/>
                </mxCell>
                <mxCell id="NaA1hih1Jg8FZ-7bSQej-18" value="" style="endArrow=classic;html=1;exitX=0.5;exitY=0;exitDx=0;exitDy=0;entryX=0.5;entryY=1;entryDx=0;entryDy=0;" edge="1" parent="NaA1hih1Jg8FZ-7bSQej-11" source="NaA1hih1Jg8FZ-7bSQej-12" target="NaA1hih1Jg8FZ-7bSQej-17">
                    <mxGeometry width="50" height="50" relative="1" as="geometry">
                        <mxPoint x="360" y="245" as="sourcePoint"/>
                        <mxPoint x="410" y="195" as="targetPoint"/>
                    </mxGeometry>
                </mxCell>
            </root>
        </mxGraphModel>
    </diagram>
</mxfile>